<?xml version="1.0" encoding="UTF-8"?> <svg xmlns="http://www.w3.org/2000/svg" id="Layer_1" data-name="Layer 1" viewBox="0 0 300 41.35"><defs><style>.cls-1,.cls-2{fill:#fff;}.cls-2,.cls-3{opacity:0.27;isolation:isolate;}</style></defs><title>VAIL-LOGO_FC_wht</title><polygon class="cls-1" points="5.91 5.96 25.14 5.96 25.14 0.56 0 0.56 0 1.65 0 5.96 0 35.11 0 39.63 0 40.73 1.09 40.73 4.82 40.73 5.91 40.73 5.91 39.63 5.91 35.11 5.91 24.54 17.12 24.54 19.55 24.54 20.65 24.54 20.65 19.21 17.12 19.21 17.12 19.21 5.91 19.21 5.91 5.96"></polygon><path class="cls-1" d="M61,40.73l-.85-1.6s0,0,0-.06L56.41,32.2h0l-4.16-7.7c5-2,8.5-6.38,8.5-11.66A12.38,12.38,0,0,0,48.24.55H31.54V40.72h5.91V25h8.66l6.68,13.29L54,40.72ZM37.56,20.06V6.12H47.78a7,7,0,0,1,7,6.83,7.12,7.12,0,0,1-7,7.11Z" transform="translate(0)"></path><rect class="cls-1" x="200.36" y="0.54" width="10.71" height="40.27"></rect><polygon class="cls-1" points="182.55 0.54 171.89 0.54 171.89 40.79 194.96 40.79 194.96 30.68 182.55 30.68 182.55 0.54"></polygon><polygon class="cls-1" points="109.41 35.38 109.41 23.05 119.55 23.05 122.09 17.66 109.41 17.65 109.41 5.96 127.63 5.96 130.18 0.56 104.59 0.56 103.5 0.56 103.5 1.65 103.5 5.96 103.5 35.38 103.49 35.38 103.49 40.73 104.59 40.73 111.21 40.73 113.74 35.38 109.41 35.38"></polygon><polygon class="cls-1" points="119.57 23.05 122.12 17.66 122.09 17.66 119.55 23.05 119.57 23.05"></polygon><polygon class="cls-2" points="119.57 23.05 122.12 17.66 122.09 17.66 119.55 23.05 119.57 23.05"></polygon><polygon class="cls-1" points="125.49 40.73 127.95 35.38 113.74 35.38 111.21 40.73 124.93 40.73 125.49 40.73"></polygon><polygon class="cls-3" points="125.49 40.73 127.95 35.38 113.74 35.38 111.21 40.73 124.93 40.73 125.49 40.73"></polygon><path class="cls-1" d="M159.44,27.47l-1.09.91A10.52,10.52,0,0,1,152,30.53a9.76,9.76,0,0,1-9.69-10c0-5.71,4.23-10.18,9.64-10.18a10.12,10.12,0,0,1,5.89,1.88c.92.78,1.43,1.27,1.43,1.28l.76.74,5.64-5.85c0-.06.11-.12.16-.19l1.34-1.39-.75-.73c-.66-.64-1.52-1.35-1.55-1.37l-.77-.61h0A19.36,19.36,0,0,0,151.69,0a20.78,20.78,0,0,0-6.45,1L132.41,28.26a20.7,20.7,0,0,0,19.28,13.09,19.67,19.67,0,0,0,12.68-4.47h0l.32-.27a12.56,12.56,0,0,0,1.74-1.68l.58-.71-6.84-7.41Z" transform="translate(0)"></path><path class="cls-1" d="M94.85,35.38H75.62V23.05H85.91l2.54-5.4H75.6V6H91.78L94.32.55H69.69V40.73H92.33Z" transform="translate(0)"></path><polygon class="cls-1" points="244.49 40.79 253.06 23.45 255.82 40.79 266.53 40.79 260.4 0.54 252.35 0.54 241.26 23.23 230.15 0.54 222.13 0.54 215.93 40.79 226.69 40.79 229.41 23.45 238 40.79 244.49 40.79"></polygon><path class="cls-1" d="M293.84,20.22c2.73-1.91,5.18-4.89,5.18-8.49C299,5.45,293.41.54,286.25.54H271.4V40.8h15.67c7.25,0,12.93-5.08,12.93-11.57C300,24.56,296.68,21.77,293.84,20.22Zm-5,7.75A2.9,2.9,0,0,1,286,30.9h-3.91V25.21h3.36C287,25.21,288.86,26.42,288.86,28Zm-6.79-12V10.48h3.2A2.65,2.65,0,0,1,288,13.13,2.83,2.83,0,0,1,285.27,16Z" transform="translate(0)"></path></svg> 